<svg width="100" height="100" viewBox="0 0 100 100" xmlns="http://www.w3.org/2000/svg">
  <!-- Bright background -->
  <rect width="100" height="100" fill="#faf8ef" rx="10"/>
  
  <!-- Grid with brighter border -->
  <rect x="5" y="5" width="90" height="90" fill="#bbada0" stroke="#8b4513" stroke-width="2" rx="8"/>
  
  <!-- Grid cells with brighter colors -->
  <rect x="8" y="8" width="19" height="19" fill="#eee4da" rx="4" stroke="#d4c4b7" stroke-width="1"/>
  <rect x="30" y="8" width="19" height="19" fill="#eee4da" rx="4" stroke="#d4c4b7" stroke-width="1"/>
  <rect x="52" y="8" width="19" height="19" fill="#eee4da" rx="4" stroke="#d4c4b7" stroke-width="1"/>
  <rect x="74" y="8" width="19" height="19" fill="#eee4da" rx="4" stroke="#d4c4b7" stroke-width="1"/>
  
  <rect x="8" y="30" width="19" height="19" fill="#eee4da" rx="4" stroke="#d4c4b7" stroke-width="1"/>
  <rect x="30" y="30" width="19" height="19" fill="#ede0c8" rx="4" stroke="#f2e8d2" stroke-width="2"/>
  <text x="39.5" y="42" text-anchor="middle" font-family="Arial" font-size="12" font-weight="bold" fill="#776e65">2</text>
  <rect x="52" y="30" width="19" height="19" fill="#f2b179" rx="4" stroke="#f5c58a" stroke-width="2"/>
  <text x="61.5" y="42" text-anchor="middle" font-family="Arial" font-size="12" font-weight="bold" fill="#f9f6f2">4</text>
  <rect x="74" y="30" width="19" height="19" fill="#eee4da" rx="4" stroke="#d4c4b7" stroke-width="1"/>
  
  <rect x="8" y="52" width="19" height="19" fill="#eee4da" rx="4" stroke="#d4c4b7" stroke-width="1"/>
  <rect x="30" y="52" width="19" height="19" fill="#eee4da" rx="4" stroke="#d4c4b7" stroke-width="1"/>
  <rect x="52" y="52" width="19" height="19" fill="#f59563" rx="4" stroke="#f7b87a" stroke-width="2"/>
  <text x="61.5" y="64" text-anchor="middle" font-family="Arial" font-size="12" font-weight="bold" fill="#f9f6f2">8</text>
  <rect x="74" y="52" width="19" height="19" fill="#eee4da" rx="4" stroke="#d4c4b7" stroke-width="1"/>
  
  <rect x="8" y="74" width="19" height="19" fill="#eee4da" rx="4" stroke="#d4c4b7" stroke-width="1"/>
  <rect x="30" y="74" width="19" height="19" fill="#eee4da" rx="4" stroke="#d4c4b7" stroke-width="1"/>
  <rect x="52" y="74" width="19" height="19" fill="#eee4da" rx="4" stroke="#d4c4b7" stroke-width="1"/>
  <rect x="74" y="74" width="19" height="19" fill="#edc22e" rx="4" stroke="#f0d055" stroke-width="2"/>
  <text x="83.5" y="86" text-anchor="middle" font-family="Arial" font-size="10" font-weight="bold" fill="#f9f6f2">16</text>
  
  <!-- Glow effects for higher tiles -->
  <rect x="30" y="30" width="19" height="19" fill="none" stroke="#fff176" stroke-width="1" rx="4" opacity="0.5"/>
  <rect x="52" y="30" width="19" height="19" fill="none" stroke="#ffb74d" stroke-width="1" rx="4" opacity="0.5"/>
  <rect x="52" y="52" width="19" height="19" fill="none" stroke="#ff8a65" stroke-width="1" rx="4" opacity="0.5"/>
  <rect x="74" y="74" width="19" height="19" fill="none" stroke="#ffd54f" stroke-width="1" rx="4" opacity="0.5"/>
</svg>
